<svg id="visual" viewBox="0 0 900 600" width="900" height="600" xmlns="http://www.w3.org/2000/svg" xmlns:xlink="http://www.w3.org/1999/xlink" version="1.1"><path d="M197 0L198.5 14.3C200 28.7 203 57.3 184.2 85.8C165.3 114.3 124.7 142.7 99.5 171.2C74.3 199.7 64.7 228.3 61.7 257C58.7 285.7 62.3 314.3 79.7 343C97 371.7 128 400.3 150.7 428.8C173.3 457.3 187.7 485.7 191.2 514.2C194.7 542.7 187.3 571.3 183.7 585.7L180 600L0 600L0 585.7C0 571.3 0 542.7 0 514.2C0 485.7 0 457.3 0 428.8C0 400.3 0 371.7 0 343C0 314.3 0 285.7 0 257C0 228.3 0 199.7 0 171.2C0 142.7 0 114.3 0 85.8C0 57.3 0 28.7 0 14.3L0 0Z" fill="#64a19d" stroke-linecap="round" stroke-linejoin="miter"></path></svg>